<svg width="153" height="153" viewBox="0 0 153 153" fill="none" xmlns="http://www.w3.org/2000/svg">
<path d="M3.3811 53.3391C5.16393 47.0592 7.64059 41.3436 10.6871 36.1914C13.1654 44.3703 16.8434 51.8701 21.419 58.3194C19.6869 64.0786 18.7269 70.4834 18.7269 77.5262C12.5398 70.8523 7.22878 62.6021 3.3811 53.3391Z" fill="#D0B88A"/>
<path d="M24.6636 19.4063C28.9333 15.6988 33.6203 12.5097 38.6284 9.9043C37.0227 17.8376 36.8156 25.6669 37.8796 33.0451C33.7699 36.5045 30.2218 40.5901 27.364 45.1538C24.874 37.2373 23.8732 28.4698 24.6636 19.4063Z" fill="#D0B88A"/>
<path d="M58.5868 2.74961C64.1122 1.56773 69.741 0.945865 75.3893 0.893311C70.173 7.17654 66.2605 13.941 63.6973 20.8238C58.5712 21.8423 53.5981 23.528 48.9031 25.8384C50.3939 18.0879 53.611 10.2058 58.5868 2.74961Z" fill="#D0B88A"/>
<path d="M96.5139 3.36963C101.976 4.7254 107.28 6.66478 112.334 9.15483C104.68 12.3828 97.9498 16.6731 92.3676 21.6643C87.2959 20.3321 82.0805 19.6354 76.8396 19.59C81.8636 13.4049 88.5058 7.81333 96.5139 3.36963Z" fill="#D0B88A"/>
<path d="M129.818 21.2661C134.044 25.2519 137.746 29.7667 140.834 34.7004C132.625 33.4679 124.66 33.8795 117.345 35.5732C113.571 31.9093 109.287 28.8193 104.628 26.4007C112.063 23.1895 120.635 21.2921 129.818 21.2661Z" fill="#D0B88A"/>
<path d="M149.86 56.4411C151.414 62.9037 152.254 69.9307 152.254 77.521C146.068 70.4237 139.158 65.5507 132.115 62.5415C130.759 56.4771 128.581 51.055 125.754 46.2759C133.757 47.4405 142.065 50.6433 149.86 56.4411Z" fill="#272727"/>
<path d="M149.124 100.533C147.341 106.813 144.864 112.529 141.818 117.681C139.34 109.502 135.662 102.002 131.086 95.5532C132.823 89.7948 133.779 83.3959 133.779 76.353C139.966 83.0211 145.276 91.268 149.124 100.533Z" fill="#272727"/>
<path d="M127.844 134.467C123.574 138.175 118.887 141.364 113.879 143.969C115.485 136.036 115.692 128.207 114.628 120.828C118.738 117.369 122.286 113.283 125.143 108.72C127.633 116.637 128.634 125.401 127.844 134.467Z" fill="#D0B88A"/>
<path d="M93.9202 151.123C88.394 152.305 82.7643 152.927 77.1152 152.98C82.3314 146.696 86.244 139.932 88.8039 133.049C93.93 132.031 98.9031 130.345 103.598 128.034C102.114 135.785 98.8969 143.668 93.9202 151.123Z" fill="#D0B88A"/>
<path d="M55.9941 150.502C50.5316 149.147 45.2282 147.207 40.1741 144.717C47.8278 141.489 54.5582 137.199 60.1404 132.208C65.2119 133.542 70.4273 134.24 75.6684 134.287C70.6419 140.467 63.9997 146.06 55.9941 150.502Z" fill="#D0B88A"/>
<path d="M22.6888 132.605C18.4627 128.62 14.7605 124.105 11.6724 119.171C19.881 120.404 27.8468 119.992 35.1611 118.298C38.9351 121.962 43.2188 125.053 47.8771 127.472C40.4438 130.683 31.8716 132.579 22.6888 132.605Z" fill="#D0B88A"/>
<path d="M2.64688 97.4301C1.09284 90.9674 0.253418 83.9405 0.253418 76.3518C6.43965 83.4492 13.3488 88.3221 20.3928 91.3313C21.748 97.3957 23.926 102.818 26.7529 107.597C18.7497 106.431 10.4454 103.228 2.64688 97.4301Z" fill="#D0B88A"/>
</svg>
